<svg xmlns="http://www.w3.org/2000/svg" version="1.1" width="200" height="200" viewBox="0 0 200 200"><rect x="0" y="0" width="200" height="200" fill="#fefefe"/><g transform="scale(4.082)"><g transform="translate(4.000,4.000)"><path fill-rule="evenodd" d="M8 0L8 4L9 4L9 2L10 2L10 3L12 3L12 5L13 5L13 6L12 6L12 7L11 7L11 5L8 5L8 7L9 7L9 6L10 6L10 9L7 9L7 8L4 8L4 9L2 9L2 8L0 8L0 9L2 9L2 10L3 10L3 11L2 11L2 12L4 12L4 10L6 10L6 11L7 11L7 10L10 10L10 11L9 11L9 12L10 12L10 13L9 13L9 14L8 14L8 12L6 12L6 13L3 13L3 14L1 14L1 16L0 16L0 17L1 17L1 16L2 16L2 17L4 17L4 18L1 18L1 20L0 20L0 22L1 22L1 20L2 20L2 22L3 22L3 21L4 21L4 20L6 20L6 21L7 21L7 22L6 22L6 23L4 23L4 24L6 24L6 25L7 25L7 26L6 26L6 27L7 27L7 28L5 28L5 29L4 29L4 31L5 31L5 32L4 32L4 33L5 33L5 32L6 32L6 33L8 33L8 34L9 34L9 33L12 33L12 35L11 35L11 34L10 34L10 36L9 36L9 35L8 35L8 37L10 37L10 36L13 36L13 37L12 37L12 38L11 38L11 40L10 40L10 39L8 39L8 41L11 41L11 40L12 40L12 39L13 39L13 38L14 38L14 40L13 40L13 41L14 41L14 40L17 40L17 41L18 41L18 40L19 40L19 41L20 41L20 40L21 40L21 41L22 41L22 39L19 39L19 38L20 38L20 37L22 37L22 38L23 38L23 39L24 39L24 40L25 40L25 41L27 41L27 40L25 40L25 39L27 39L27 38L26 38L26 37L27 37L27 36L26 36L26 35L27 35L27 34L28 34L28 33L27 33L27 32L28 32L28 29L29 29L29 28L28 28L28 29L27 29L27 31L26 31L26 29L22 29L22 31L24 31L24 33L25 33L25 35L24 35L24 34L23 34L23 32L21 32L21 33L22 33L22 34L23 34L23 35L22 35L22 36L21 36L21 35L19 35L19 34L20 34L20 31L21 31L21 30L20 30L20 28L21 28L21 27L18 27L18 26L19 26L19 25L20 25L20 26L21 26L21 25L20 25L20 23L21 23L21 21L22 21L22 19L21 19L21 17L22 17L22 18L23 18L23 15L26 15L26 14L27 14L27 16L28 16L28 15L29 15L29 16L30 16L30 17L32 17L32 16L33 16L33 18L34 18L34 19L33 19L33 20L32 20L32 18L30 18L30 19L29 19L29 17L28 17L28 18L26 18L26 16L25 16L25 17L24 17L24 18L25 18L25 19L24 19L24 20L25 20L25 22L24 22L24 23L26 23L26 24L25 24L25 27L24 27L24 28L25 28L25 27L29 27L29 26L27 26L27 25L26 25L26 24L28 24L28 25L30 25L30 27L31 27L31 28L30 28L30 31L29 31L29 32L30 32L30 31L31 31L31 34L30 34L30 35L31 35L31 37L33 37L33 38L35 38L35 37L36 37L36 38L37 38L37 36L38 36L38 38L39 38L39 39L36 39L36 40L35 40L35 39L32 39L32 38L30 38L30 39L32 39L32 41L33 41L33 40L34 40L34 41L40 41L40 40L39 40L39 39L41 39L41 38L40 38L40 33L41 33L41 32L40 32L40 31L41 31L41 30L40 30L40 31L39 31L39 29L40 29L40 28L38 28L38 29L37 29L37 28L34 28L34 27L37 27L37 26L34 26L34 27L33 27L33 25L34 25L34 24L33 24L33 23L32 23L32 21L33 21L33 22L34 22L34 23L35 23L35 22L34 22L34 19L35 19L35 20L36 20L36 19L41 19L41 17L40 17L40 15L39 15L39 14L41 14L41 13L40 13L40 12L38 12L38 11L39 11L39 10L40 10L40 11L41 11L41 10L40 10L40 9L41 9L41 8L37 8L37 9L38 9L38 10L36 10L36 8L35 8L35 9L33 9L33 5L32 5L32 7L31 7L31 6L30 6L30 5L31 5L31 4L30 4L30 5L28 5L28 11L29 11L29 9L30 9L30 11L32 11L32 12L30 12L30 13L32 13L32 12L33 12L33 13L34 13L34 14L33 14L33 15L31 15L31 14L30 14L30 15L29 15L29 14L27 14L27 13L26 13L26 12L25 12L25 11L27 11L27 9L25 9L25 8L26 8L26 7L27 7L27 6L26 6L26 7L25 7L25 5L27 5L27 4L28 4L28 3L25 3L25 5L24 5L24 3L22 3L22 2L25 2L25 1L26 1L26 2L28 2L28 1L26 1L26 0L25 0L25 1L24 1L24 0L23 0L23 1L21 1L21 2L20 2L20 0L17 0L17 1L16 1L16 0L14 0L14 1L15 1L15 3L14 3L14 2L10 2L10 1L9 1L9 0ZM11 0L11 1L12 1L12 0ZM31 0L31 2L30 2L30 1L29 1L29 3L32 3L32 4L33 4L33 0ZM18 1L18 2L16 2L16 4L15 4L15 5L14 5L14 6L13 6L13 8L14 8L14 6L15 6L15 7L16 7L16 5L18 5L18 4L17 4L17 3L19 3L19 4L21 4L21 5L23 5L23 8L22 8L22 9L21 9L21 7L22 7L22 6L21 6L21 7L20 7L20 6L19 6L19 8L18 8L18 6L17 6L17 10L18 10L18 11L23 11L23 13L24 13L24 14L25 14L25 13L24 13L24 11L25 11L25 9L24 9L24 8L25 8L25 7L24 7L24 5L23 5L23 4L21 4L21 3L19 3L19 1ZM13 3L13 4L14 4L14 3ZM29 6L29 7L30 7L30 6ZM11 8L11 9L12 9L12 8ZM15 8L15 9L14 9L14 10L13 10L13 12L14 12L14 11L16 11L16 12L15 12L15 13L14 13L14 14L13 14L13 13L10 13L10 16L8 16L8 17L9 17L9 18L8 18L8 19L6 19L6 20L9 20L9 19L10 19L10 18L11 18L11 16L12 16L12 15L14 15L14 16L13 16L13 17L12 17L12 19L11 19L11 22L8 22L8 23L9 23L9 24L8 24L8 26L7 26L7 27L8 27L8 30L10 30L10 31L11 31L11 32L12 32L12 33L13 33L13 34L14 34L14 33L15 33L15 32L17 32L17 31L19 31L19 29L18 29L18 28L17 28L17 27L16 27L16 28L15 28L15 29L14 29L14 30L13 30L13 29L12 29L12 28L14 28L14 27L15 27L15 25L16 25L16 26L18 26L18 25L19 25L19 23L20 23L20 21L21 21L21 20L20 20L20 21L19 21L19 19L20 19L20 17L18 17L18 18L16 18L16 20L15 20L15 19L14 19L14 21L15 21L15 22L16 22L16 23L17 23L17 22L18 22L18 21L19 21L19 23L18 23L18 25L17 25L17 24L15 24L15 23L14 23L14 22L13 22L13 23L12 23L12 24L11 24L11 22L12 22L12 21L13 21L13 18L15 18L15 16L19 16L19 15L20 15L20 16L22 16L22 15L23 15L23 14L22 14L22 12L21 12L21 15L20 15L20 14L19 14L19 13L18 13L18 12L17 12L17 11L16 11L16 10L15 10L15 9L16 9L16 8ZM19 8L19 10L20 10L20 8ZM6 9L6 10L7 10L7 9ZM22 9L22 10L24 10L24 9ZM32 9L32 11L33 11L33 12L34 12L34 13L35 13L35 14L36 14L36 13L35 13L35 11L34 11L34 10L33 10L33 9ZM11 10L11 12L12 12L12 10ZM0 11L0 13L1 13L1 11ZM36 11L36 12L37 12L37 11ZM28 12L28 13L29 13L29 12ZM6 13L6 14L3 14L3 16L4 16L4 17L5 17L5 18L7 18L7 17L6 17L6 16L7 16L7 15L8 15L8 14L7 14L7 13ZM16 13L16 15L19 15L19 14L17 14L17 13ZM37 13L37 15L34 15L34 16L35 16L35 19L36 19L36 18L38 18L38 16L39 16L39 15L38 15L38 13ZM6 14L6 15L7 15L7 14ZM14 14L14 15L15 15L15 14ZM4 15L4 16L5 16L5 15ZM30 15L30 16L31 16L31 15ZM37 15L37 16L38 16L38 15ZM18 18L18 19L19 19L19 18ZM2 19L2 20L4 20L4 19ZM26 19L26 20L27 20L27 21L26 21L26 23L28 23L28 24L29 24L29 23L30 23L30 21L31 21L31 20L29 20L29 19ZM16 20L16 21L17 21L17 20ZM37 20L37 21L36 21L36 23L41 23L41 22L40 22L40 20ZM37 21L37 22L38 22L38 21ZM28 22L28 23L29 23L29 22ZM1 23L1 24L0 24L0 26L2 26L2 28L0 28L0 30L2 30L2 28L4 28L4 27L5 27L5 26L4 26L4 27L3 27L3 26L2 26L2 25L3 25L3 23ZM6 23L6 24L7 24L7 23ZM13 23L13 26L11 26L11 25L10 25L10 24L9 24L9 26L8 26L8 27L10 27L10 26L11 26L11 27L13 27L13 26L14 26L14 23ZM22 23L22 26L23 26L23 23ZM30 24L30 25L31 25L31 24ZM36 24L36 25L38 25L38 27L41 27L41 25L40 25L40 24L39 24L39 25L38 25L38 24ZM31 26L31 27L32 27L32 26ZM22 27L22 28L23 28L23 27ZM9 28L9 29L10 29L10 30L11 30L11 29L10 29L10 28ZM32 28L32 29L33 29L33 30L31 30L31 31L34 31L34 32L37 32L37 34L38 34L38 32L37 32L37 31L34 31L34 30L36 30L36 29L33 29L33 28ZM5 29L5 30L7 30L7 29ZM16 29L16 31L17 31L17 29ZM14 30L14 31L15 31L15 30ZM6 31L6 32L7 32L7 31ZM12 31L12 32L13 32L13 31ZM25 31L25 32L26 32L26 31ZM0 32L0 33L3 33L3 32ZM8 32L8 33L9 33L9 32ZM39 32L39 33L40 33L40 32ZM16 33L16 34L17 34L17 35L16 35L16 36L15 36L15 35L14 35L14 37L15 37L15 38L16 38L16 39L17 39L17 38L18 38L18 37L19 37L19 35L18 35L18 34L19 34L19 33L18 33L18 34L17 34L17 33ZM33 33L33 36L36 36L36 33ZM31 34L31 35L32 35L32 34ZM34 34L34 35L35 35L35 34ZM23 35L23 38L25 38L25 37L24 37L24 35ZM28 35L28 38L29 38L29 35ZM38 35L38 36L39 36L39 35ZM16 36L16 37L17 37L17 36ZM28 39L28 40L29 40L29 39ZM0 0L0 7L7 7L7 0ZM1 1L1 6L6 6L6 1ZM2 2L2 5L5 5L5 2ZM41 0L34 0L34 7L41 7ZM40 1L35 1L35 6L40 6ZM39 2L36 2L36 5L39 5ZM0 41L7 41L7 34L0 34ZM1 40L6 40L6 35L1 35ZM2 39L5 39L5 36L2 36Z" fill="#000000"/></g></g></svg>
