<svg xmlns="http://www.w3.org/2000/svg" version="1.1" width="200" height="200" viewBox="0 0 200 200"><rect x="0" y="0" width="200" height="200" fill="#fefefe"/><g transform="scale(4.082)"><g transform="translate(4.000,4.000)"><path fill-rule="evenodd" d="M8 0L8 4L9 4L9 2L10 2L10 3L11 3L11 2L10 2L10 1L9 1L9 0ZM12 0L12 5L13 5L13 6L12 6L12 7L11 7L11 6L10 6L10 7L9 7L9 5L8 5L8 7L9 7L9 8L10 8L10 9L9 9L9 10L10 10L10 11L9 11L9 12L10 12L10 13L11 13L11 8L14 8L14 9L13 9L13 10L14 10L14 9L15 9L15 11L14 11L14 12L13 12L13 11L12 11L12 13L13 13L13 15L12 15L12 16L11 16L11 14L8 14L8 13L7 13L7 12L8 12L8 9L7 9L7 8L4 8L4 9L3 9L3 10L2 10L2 8L0 8L0 9L1 9L1 10L2 10L2 13L3 13L3 14L0 14L0 16L1 16L1 17L4 17L4 18L1 18L1 20L0 20L0 23L1 23L1 24L0 24L0 26L1 26L1 24L2 24L2 26L3 26L3 28L0 28L0 30L2 30L2 29L3 29L3 28L4 28L4 27L5 27L5 26L4 26L4 24L3 24L3 23L2 23L2 22L3 22L3 21L4 21L4 20L6 20L6 21L7 21L7 22L5 22L5 23L7 23L7 24L5 24L5 25L7 25L7 26L6 26L6 27L7 27L7 28L5 28L5 29L7 29L7 30L5 30L5 31L7 31L7 32L4 32L4 33L8 33L8 34L9 34L9 33L8 33L8 32L9 32L9 31L10 31L10 32L11 32L11 34L10 34L10 36L9 36L9 35L8 35L8 37L9 37L9 38L10 38L10 40L9 40L9 39L8 39L8 41L10 41L10 40L12 40L12 41L14 41L14 40L16 40L16 41L20 41L20 40L21 40L21 41L22 41L22 39L19 39L19 38L20 38L20 37L22 37L22 38L23 38L23 39L24 39L24 40L25 40L25 41L27 41L27 40L25 40L25 39L27 39L27 38L26 38L26 37L27 37L27 36L26 36L26 35L27 35L27 34L28 34L28 33L27 33L27 32L28 32L28 29L29 29L29 28L28 28L28 29L27 29L27 31L26 31L26 29L22 29L22 31L24 31L24 33L25 33L25 35L24 35L24 34L23 34L23 32L21 32L21 33L22 33L22 34L23 34L23 35L22 35L22 36L21 36L21 35L19 35L19 34L20 34L20 31L21 31L21 30L20 30L20 28L21 28L21 27L18 27L18 26L19 26L19 25L20 25L20 26L21 26L21 25L20 25L20 23L21 23L21 21L22 21L22 19L21 19L21 17L22 17L22 18L23 18L23 15L26 15L26 14L27 14L27 16L28 16L28 15L29 15L29 16L30 16L30 17L32 17L32 16L33 16L33 18L34 18L34 19L33 19L33 20L32 20L32 18L30 18L30 19L29 19L29 17L28 17L28 18L26 18L26 16L25 16L25 17L24 17L24 18L25 18L25 19L24 19L24 20L25 20L25 22L24 22L24 23L26 23L26 24L25 24L25 27L24 27L24 28L25 28L25 27L29 27L29 26L27 26L27 25L26 25L26 24L28 24L28 25L30 25L30 27L31 27L31 28L30 28L30 31L29 31L29 32L30 32L30 31L31 31L31 34L30 34L30 35L31 35L31 37L33 37L33 38L35 38L35 37L36 37L36 38L37 38L37 36L38 36L38 38L39 38L39 39L36 39L36 40L35 40L35 39L32 39L32 38L30 38L30 39L32 39L32 41L33 41L33 40L34 40L34 41L40 41L40 40L39 40L39 39L41 39L41 38L40 38L40 33L41 33L41 32L40 32L40 31L41 31L41 30L40 30L40 31L39 31L39 29L40 29L40 28L38 28L38 29L37 29L37 28L34 28L34 27L37 27L37 26L34 26L34 27L33 27L33 25L34 25L34 24L33 24L33 23L32 23L32 21L33 21L33 22L34 22L34 23L35 23L35 22L34 22L34 19L35 19L35 20L36 20L36 19L41 19L41 17L40 17L40 15L39 15L39 14L41 14L41 13L40 13L40 12L38 12L38 11L39 11L39 10L40 10L40 11L41 11L41 10L40 10L40 9L41 9L41 8L37 8L37 9L38 9L38 10L36 10L36 8L35 8L35 9L33 9L33 5L32 5L32 7L31 7L31 6L30 6L30 5L31 5L31 4L30 4L30 5L28 5L28 11L29 11L29 9L30 9L30 11L32 11L32 12L30 12L30 13L32 13L32 12L33 12L33 13L34 13L34 14L33 14L33 15L31 15L31 14L30 14L30 15L29 15L29 14L27 14L27 13L26 13L26 12L25 12L25 11L27 11L27 9L25 9L25 8L26 8L26 7L27 7L27 6L26 6L26 7L25 7L25 5L27 5L27 4L28 4L28 3L25 3L25 5L24 5L24 3L22 3L22 2L25 2L25 1L26 1L26 2L28 2L28 1L26 1L26 0L25 0L25 1L24 1L24 0L23 0L23 1L21 1L21 2L20 2L20 0L17 0L17 1L16 1L16 2L15 2L15 3L14 3L14 2L13 2L13 0ZM31 0L31 2L30 2L30 1L29 1L29 3L32 3L32 4L33 4L33 0ZM18 1L18 2L16 2L16 4L15 4L15 5L14 5L14 6L13 6L13 7L14 7L14 8L15 8L15 9L16 9L16 10L18 10L18 11L23 11L23 13L24 13L24 14L25 14L25 13L24 13L24 11L25 11L25 9L24 9L24 8L25 8L25 7L24 7L24 5L23 5L23 4L21 4L21 3L19 3L19 1ZM13 3L13 4L14 4L14 3ZM17 3L17 4L18 4L18 5L16 5L16 7L15 7L15 6L14 6L14 7L15 7L15 8L16 8L16 9L17 9L17 6L18 6L18 8L19 8L19 10L20 10L20 8L19 8L19 6L20 6L20 7L21 7L21 9L22 9L22 10L24 10L24 9L22 9L22 8L23 8L23 5L21 5L21 4L19 4L19 3ZM21 6L21 7L22 7L22 6ZM29 6L29 7L30 7L30 6ZM5 9L5 10L3 10L3 13L4 13L4 14L3 14L3 16L4 16L4 17L6 17L6 18L7 18L7 19L6 19L6 20L7 20L7 19L8 19L8 20L9 20L9 19L10 19L10 18L11 18L11 16L10 16L10 15L9 15L9 16L8 16L8 17L6 17L6 16L7 16L7 15L8 15L8 14L7 14L7 13L6 13L6 12L7 12L7 11L6 11L6 10L7 10L7 9ZM32 9L32 11L33 11L33 12L34 12L34 13L35 13L35 14L36 14L36 13L35 13L35 11L34 11L34 10L33 10L33 9ZM0 11L0 13L1 13L1 11ZM16 11L16 12L15 12L15 13L14 13L14 15L13 15L13 17L12 17L12 19L11 19L11 22L10 22L10 21L9 21L9 22L8 22L8 23L10 23L10 24L8 24L8 25L10 25L10 24L11 24L11 25L12 25L12 26L10 26L10 27L9 27L9 26L7 26L7 27L8 27L8 28L7 28L7 29L8 29L8 30L10 30L10 29L11 29L11 32L12 32L12 31L13 31L13 34L14 34L14 33L15 33L15 35L14 35L14 37L15 37L15 38L14 38L14 39L12 39L12 40L14 40L14 39L15 39L15 38L16 38L16 39L17 39L17 38L18 38L18 37L19 37L19 35L18 35L18 34L19 34L19 33L18 33L18 34L17 34L17 33L15 33L15 32L17 32L17 31L19 31L19 29L18 29L18 28L17 28L17 27L16 27L16 28L15 28L15 29L14 29L14 31L13 31L13 29L12 29L12 28L11 28L11 27L13 27L13 28L14 28L14 27L15 27L15 26L13 26L13 24L14 24L14 25L16 25L16 24L14 24L14 23L15 23L15 22L16 22L16 23L17 23L17 22L18 22L18 21L19 21L19 23L20 23L20 21L21 21L21 20L20 20L20 21L19 21L19 19L20 19L20 17L18 17L18 18L16 18L16 19L14 19L14 21L15 21L15 22L14 22L14 23L12 23L12 24L11 24L11 22L12 22L12 21L13 21L13 18L14 18L14 17L15 17L15 16L16 16L16 17L17 17L17 15L20 15L20 16L22 16L22 15L23 15L23 14L22 14L22 12L21 12L21 15L20 15L20 14L19 14L19 13L18 13L18 12L17 12L17 11ZM36 11L36 12L37 12L37 11ZM28 12L28 13L29 13L29 12ZM5 13L5 14L6 14L6 15L5 15L5 16L6 16L6 15L7 15L7 14L6 14L6 13ZM16 13L16 15L17 15L17 13ZM37 13L37 15L34 15L34 16L35 16L35 19L36 19L36 18L38 18L38 16L39 16L39 15L38 15L38 13ZM1 15L1 16L2 16L2 15ZM14 15L14 16L15 16L15 15ZM30 15L30 16L31 16L31 15ZM37 15L37 16L38 16L38 15ZM8 17L8 19L9 19L9 17ZM18 18L18 19L19 19L19 18ZM3 19L3 20L4 20L4 19ZM16 19L16 21L17 21L17 19ZM26 19L26 20L27 20L27 21L26 21L26 23L28 23L28 24L29 24L29 23L30 23L30 21L31 21L31 20L29 20L29 19ZM1 20L1 22L2 22L2 20ZM37 20L37 21L36 21L36 23L41 23L41 22L40 22L40 20ZM37 21L37 22L38 22L38 21ZM28 22L28 23L29 23L29 22ZM22 23L22 26L23 26L23 23ZM17 24L17 26L18 26L18 24ZM30 24L30 25L31 25L31 24ZM36 24L36 25L38 25L38 27L41 27L41 25L40 25L40 24L39 24L39 25L38 25L38 24ZM31 26L31 27L32 27L32 26ZM22 27L22 28L23 28L23 27ZM9 28L9 29L10 29L10 28ZM32 28L32 29L33 29L33 30L31 30L31 31L34 31L34 32L37 32L37 34L38 34L38 32L37 32L37 31L34 31L34 30L36 30L36 29L33 29L33 28ZM16 29L16 31L17 31L17 29ZM14 31L14 32L15 32L15 31ZM25 31L25 32L26 32L26 31ZM0 32L0 33L3 33L3 32ZM39 32L39 33L40 33L40 32ZM33 33L33 36L36 36L36 33ZM11 34L11 35L12 35L12 34ZM31 34L31 35L32 35L32 34ZM34 34L34 35L35 35L35 34ZM15 35L15 36L16 36L16 37L17 37L17 36L16 36L16 35ZM23 35L23 38L25 38L25 37L24 37L24 35ZM28 35L28 38L29 38L29 35ZM38 35L38 36L39 36L39 35ZM10 36L10 38L12 38L12 37L13 37L13 36ZM28 39L28 40L29 40L29 39ZM0 0L0 7L7 7L7 0ZM1 1L1 6L6 6L6 1ZM2 2L2 5L5 5L5 2ZM41 0L34 0L34 7L41 7ZM40 1L35 1L35 6L40 6ZM39 2L36 2L36 5L39 5ZM0 41L7 41L7 34L0 34ZM1 40L6 40L6 35L1 35ZM2 39L5 39L5 36L2 36Z" fill="#000000"/></g></g></svg>
